<?xml version="1.0" encoding="UTF-8"?>
<svg width="80px" height="76px" viewBox="0 0 80 76" version="1.1" xmlns="http://www.w3.org/2000/svg" xmlns:xlink="http://www.w3.org/1999/xlink">
    <title>Core/gwl logo/primary/stacked</title>
    <g id="-----↳-07-UI-Components-(Hosted-Symbols)" stroke="none" stroke-width="1" fill="none" fill-rule="evenodd">
        <g id="Web-System-/-Navigations-/-Top-Navigation-/--Primary-/-2022-/-1440px" transform="translate(-12.000000, -14.000000)">
            <g id="Group" transform="translate(12.000000, 12.000000)">
                <g id="GWL" transform="translate(0.000000, 2.276444)">
                    <polygon id="Fill-1" fill="#FFFFFE" points="1.33306667 73.8977778 72.7106667 73.8977778 72.7106667 1.35484444 1.33306667 1.35484444"></polygon>
                    <path d="M31.0147111,29.5743111 C31.1537333,29.5090222 31.3301333,29.5507556 31.4047556,29.6910667 C31.4973333,29.8657333 31.6543111,29.8104889 31.6543111,29.8104889 C31.6756889,29.3327556 31.108,28.2877333 31.108,28.2877333 C30.6200444,28.9512889 30.6405778,29.8908444 30.6405778,29.8908444 C30.7944889,29.972 30.8878222,29.6350222 31.0147111,29.5743111" id="Fill-2" fill="#842124"></path>
                    <path d="M31.9552889,37.5839556 C32.4840444,37.5059111 33.0452,37.6744 33.4967111,37.2844444 C33.8486667,36.9791556 33.9720889,36.4412 34.0608444,36.0021333 C34.2833333,34.8983556 34.1020444,33.7037778 33.5053778,32.7403111 C33.1823556,32.2193333 32.4219556,31.2690222 32.4219556,31.2690222 C32.1027111,30.7592444 31.4101333,30.6564444 30.8900889,30.8802222 C30.7941333,30.9208 30.7083556,30.9729778 30.6321778,31.0336444 C30.3018667,31.2949333 30.1282222,31.7126667 29.9536889,32.1026222 C29.8100889,32.4210667 29.5136889,32.7109333 29.4645333,33.0637778 C29.2793778,34.3955556 29.5380444,35.7265778 30.2534667,36.8639556 C30.8116444,37.7532444 31.9552889,37.5843556 31.9552889,37.5839556" id="Fill-3" fill="#842124"></path>
                    <path d="M40.8344444,33.9229333 C40.8344444,33.9229333 40.6088889,33.0124 40.1064,32.7924889 C40.1064,32.7924889 39.9818667,33.9364444 40.2279111,34.3492 C40.2279111,34.3492 40.2405333,33.6303111 40.8344444,33.9229333" id="Fill-4" fill="#842124"></path>
                    <path d="M33.3892444,29.2191556 C33.3892444,29.2191556 33.5484444,29.1781778 33.6109333,29.0181778 C33.6109333,29.0181778 33.5355111,28.5428444 34.0791556,28.6456 C34.0791556,28.6456 34.4905778,28.8895111 34.4087111,28.6317333 C34.4087111,28.6317333 33.9039111,27.9287111 33.0261778,27.9082222 C33.0261778,27.9082222 33.0696,28.9969333 33.3892444,29.2191556" id="Fill-5" fill="#842124"></path>
                    <path d="M34.3462667,33.5055111 C34.6349778,34.3376 35.0513778,35.1271556 35.5603556,35.8421778 C35.8746222,36.1571111 36.4967556,36.4481333 36.9474667,36.4260889 C37.8568444,36.3820444 38.8183111,35.1588444 38.7151111,34.2622222 C38.5619556,32.9396889 37.9962222,31.8054222 37.1470667,30.8017333 C36.9436444,30.5602222 36.5409778,30.4705333 36.2784444,30.2850222 C35.9329333,30.0396444 35.5596,29.7393333 35.1393778,29.7327556 C35.0258667,29.7304444 34.9073778,29.7505778 34.7873778,29.7980889 C33.4383556,30.3383556 33.9972444,32.5045333 34.3462667,33.5055111" id="Fill-6" fill="#842124"></path>
                    <path d="M28.5562667,36.7201778 C28.7658667,36.5246222 28.1643111,35.3126667 28.1643111,35.3126667 C27.9631556,35.5043556 27.8861778,36.5443556 27.8861778,36.5443556 C28.3483111,36.2529778 28.5562667,36.7201778 28.5562667,36.7201778" id="Fill-7" fill="#842124"></path>
                    <path d="M42.6356889,37.5971111 C42.4832,36.852 42.2340889,35.9735556 41.5860444,35.5167111 C40.9632,35.0776889 40.1475111,35.1488444 39.5330222,36.0636 C39.5330222,36.0636 39.1928444,37.1692889 38.8872889,37.3574667 C38.0560444,37.8664444 38.0384889,40.2510222 38.9322667,40.7016444 C41.058,41.7732889 43.0806222,39.7791556 42.6356889,37.5971111" id="Fill-8" fill="#842124"></path>
                    <path d="M39.8660444,41.6380889 C39.3193333,41.3876444 38.6526667,41.2755556 38.1966222,40.8519556 C37.9818222,40.6514222 37.8457778,40.3248444 37.6499556,40.1007111 C37.2914667,39.6910222 36.3638222,39.2898222 35.8354222,39.1770222 C35.0152,39.0004 34.1907556,39.5360444 33.7469778,40.2015556 C33.3256,40.8315111 33.2909778,41.5147556 33.0349333,42.2061778 C33.0189333,42.2487111 33.0021333,42.2985333 32.9846222,42.3522667 C32.8509333,42.7615556 32.6756444,43.4235556 32.4055556,43.6624 C31.6158667,44.3596 31.5979111,45.7782222 31.5979111,45.7782222 C31.5739111,47.5693333 33.6776444,47.424 34.9454667,47.3906667 C36.0845333,47.3613333 37.2122222,47.0866667 38.2766222,46.6862222 C39.1944,46.3404444 39.8884889,45.8706667 40.6793333,45.2955556 C41.6142667,44.6164444 42.3460444,43.7976444 41.4260889,42.7580889 C41.0069778,42.2846222 40.4378667,41.8993333 39.8660444,41.6380889" id="Fill-9" fill="#842124"></path>
                    <path d="M31.3587111,39.9024444 C31.2238222,39.4170222 30.4851556,38.9992 30.4851556,38.9992 C30.1570667,38.9358667 29.5030222,38.0744 29.5030222,38.0744 C28.2058222,37.1340889 27.4767111,38.2324444 27.4767111,38.2324444 C27.202,38.7673778 27.2008,39.1743111 27.2293778,39.7597778 C27.2492889,40.1467111 27.202,40.5296444 27.3311556,40.9025778 C27.4058222,41.1178667 27.5768889,41.2836889 27.6572,41.4827111 C27.9962667,42.3290667 28.9601333,42.6304889 28.9601333,42.6304889 C30.5392444,43.2801778 31.5160444,41.9534667 31.5160444,41.9534667 C32.1133778,41.3111111 31.3587111,39.9024444 31.3587111,39.9024444" id="Fill-10" fill="#842124"></path>
                    <path d="M13.5912,26.1428444 L17.8287111,26.1428444 C19.1183556,26.1428444 19.6300444,25.5287111 19.6300444,24.2796444 L19.6300444,20.1242667 L20.2851111,18.978 L15.7459556,18.978 L15.7459556,20.9227111 L17.0507111,20.9227111 L17.0507111,23.2767111 C17.0507111,23.8293778 16.7641333,24.1980889 16.2115111,24.1980889 L15.2288889,24.1980889 C14.6555556,24.1980889 14.3894667,23.8293778 14.3894667,23.2767111 L14.3894667,14.6788889 C14.3894667,14.1262222 14.6555556,13.7579111 15.2288889,13.7579111 L16.2729333,13.7579111 C16.8460889,13.7579111 17.1121778,14.1262222 17.1121778,14.6788889 L17.1121778,16.768 L19.6300444,16.768 L19.6300444,13.676 C19.6300444,12.4272444 19.1183556,11.8132 17.8287111,11.8132 L13.5912,11.8132 C12.3220444,11.8132 11.8101333,12.4272444 11.8101333,13.676 L11.8101333,24.2796444 C11.8101333,25.5287111 12.3220444,26.1428444 13.5912,26.1428444" id="Fill-11" fill="#1D2E3F"></path>
                    <path d="M25.4801333,13.7579111 L26.9539556,13.7579111 C27.7114222,13.7579111 28.0594222,14.2491556 28.0594222,14.9656444 L28.0594222,16.7874667 C28.0594222,17.504 27.7114222,17.9952 26.9539556,17.9952 L25.4801333,17.9952 L25.4801333,13.7579111 Z M22.2660444,26.1428444 L26.1352,26.1428444 L25.4801333,24.9961333 L25.4801333,19.9399556 L25.8894222,19.9399556 C26.7288,19.9399556 26.9948889,20.3700889 27.1995556,21.2500889 L28.1412,24.9961333 L27.7728444,26.1428444 L31.8055111,26.1428444 L30.9048444,25.0170222 L29.3696,19.8580444 C30.2702222,19.6330667 30.6387556,18.978 30.6387556,17.8108444 L30.6387556,13.676 C30.6387556,12.4272444 30.1268889,11.8132 28.8577333,11.8132 L22.2660444,11.8132 L22.9006222,12.9594222 L22.9006222,24.9961333 L22.2660444,26.1428444 L22.2660444,26.1428444 Z" id="Fill-12" fill="#1D2E3F"></path>
                    <polyline id="Fill-13" fill="#1D2E3F" points="33.7864889 26.1428444 41.5041333 26.1428444 41.5041333 23.0924 39.3545778 24.1980889 37.0005778 24.1980889 37.0005778 19.9604 39.1294222 19.9604 40.3168889 20.4925778 40.3168889 17.4630222 39.1294222 17.9952 37.0005778 17.9952 37.0005778 13.7579111 39.3545778 13.7579111 41.5041333 14.8632 41.5041333 11.8132 33.7864889 11.8132 34.4212444 12.9594222 34.4212444 24.9961333 33.7864889 26.1428444"></polyline>
                    <path d="M48.2928889,14.1467111 L49.3782222,21.4344 L47.208,21.4344 L48.2928889,14.1467111 Z M46.7168889,24.9961333 L46.9622222,23.3791556 L49.644,23.3791556 L49.8897778,24.9961333 L49.3368889,26.1428444 L53.3288889,26.1428444 L52.6124444,24.9961333 L50.2173333,11.8132 L46.4711111,11.8132 L44.0964889,24.9961333 L43.3595111,26.1428444 L47.2493333,26.1428444 L46.7168889,24.9961333 L46.7168889,24.9961333 Z" id="Fill-14" fill="#1D2E3F"></path>
                    <polyline id="Fill-15" fill="#1D2E3F" points="56.7364444 13.6145333 56.7364444 24.9961333 56.1022222 26.1428444 59.9506667 26.1428444 59.316 24.9961333 59.316 13.6145333 60.0635556 13.6145333 62.2337778 15.0066222 62.2337778 11.8132 53.8186667 11.8132 53.8186667 15.0066222 56.0088889 13.6145333 56.7364444 13.6145333"></polyline>
                    <polyline id="Fill-16" fill="#1D2E3F" points="47.9937778 42.8463556 47.9937778 31.6077333 48.6488889 30.4614667 44.78 30.4614667 45.4146667 31.6077333 45.4146667 43.6448 44.78 44.7911111 52.4973333 44.7911111 52.4973333 41.7410667 50.3275556 42.8463556 47.9937778 42.8463556"></polyline>
                    <polyline id="Fill-17" fill="#1D2E3F" points="55.1506667 31.6077333 55.1506667 43.6448 54.516 44.7911111 58.3853333 44.7911111 57.7302222 43.6448 57.7302222 38.7111111 59.8591111 38.7111111 61.0466667 39.2436444 61.0466667 36.2137333 59.8591111 36.7459111 57.7302222 36.7459111 57.7302222 32.4062222 60.0431111 32.4062222 62.2337778 33.5115556 62.2337778 30.4614667 54.516 30.4614667 55.1506667 31.6077333"></polyline>
                    <polyline id="Fill-18" fill="#1D2E3F" points="13.7965333 44.7906667 17.3379556 44.7906667 18.5459111 35.8042667 19.7946222 44.7906667 23.2746222 44.7906667 25.3217333 31.6075111 26.0587556 30.4612889 22.2510667 30.4612889 22.7424 31.6075111 21.5549778 41.8633778 20.1425778 31.6075111 20.6952889 30.4612889 16.5192 30.4612889 16.9694667 31.6075111 15.6388444 41.9043556 14.4311556 31.6075111 14.9632889 30.4612889 11.0533333 30.4612889 11.7699111 31.6075111 13.7965333 44.7906667"></polyline>
                    <polyline id="Fill-19" fill="#1D2E3F" points="14.4414667 61.4942222 14.4414667 50.2555556 15.0965333 49.1093333 11.2274222 49.1093333 11.8621333 50.2555556 11.8621333 62.2924444 11.2274222 63.4391111 18.9451111 63.4391111 18.9451111 60.3888889 16.7752444 61.4942222 14.4414667 61.4942222"></polyline>
                    <path d="M48.2324444,56.2746667 L47.5826667,56.2746667 L47.5826667,58.2191111 L48.8875556,58.2191111 L48.8875556,60.5733333 C48.8875556,61.1257778 48.6008889,61.4946667 48.0484444,61.4946667 L47.0657778,61.4946667 C46.4924444,61.4946667 46.2262222,61.1257778 46.2262222,60.5733333 L46.2262222,51.9755556 C46.2262222,51.4226667 46.4924444,51.0542222 47.0657778,51.0542222 L48.1097778,51.0542222 C48.6831111,51.0542222 48.9488889,51.4226667 48.9488889,51.9755556 L48.9488889,54.0644444 L51.4671111,54.0644444 L51.4671111,50.9724444 C51.4671111,49.724 50.9551111,49.1097778 49.6653333,49.1097778 L45.428,49.1097778 C44.1588889,49.1097778 43.6470222,49.724 43.6470222,50.9724444 L43.6470222,61.576 C43.6470222,62.8253333 44.1588889,63.4395556 45.428,63.4395556 L49.6653333,63.4395556 C50.9551111,63.4395556 51.4671111,62.8253333 51.4671111,61.576 L51.4671111,57.4208889 L52.1217778,56.2746667 L48.2324444,56.2746667" id="Fill-20" fill="#1D2E3F"></path>
                    <path d="M26.6793778,60.5733333 C26.6793778,61.1257778 26.3928,61.4942222 25.8401778,61.4942222 L24.8575556,61.4942222 C24.2844444,61.4942222 24.0181333,61.1257778 24.0181333,60.5733333 L24.0181333,51.9755556 C24.0181333,51.4222222 24.2844444,51.0542222 24.8575556,51.0542222 L25.8401778,51.0542222 C26.3928,51.0542222 26.6793778,51.4222222 26.6793778,51.9755556 L26.6793778,60.5733333 Z M27.4573778,49.1093333 L23.2198667,49.1093333 C21.9506667,49.1093333 21.4388,49.7235556 21.4388,50.972 L21.4388,61.576 C21.4388,62.8248889 21.9506667,63.4391111 23.2198667,63.4391111 L27.4573778,63.4391111 C28.7470222,63.4391111 29.2587111,62.8248889 29.2587111,61.576 L29.2587111,50.972 C29.2587111,49.7235556 28.7470222,49.1093333 27.4573778,49.1093333 L27.4573778,49.1093333 Z" id="Fill-21" fill="#1D2E3F"></path>
                    <path d="M35.2758222,51.0542222 L36.7496444,51.0542222 C37.5071556,51.0542222 37.8552,51.5453333 37.8552,52.2617778 L37.8552,60.2866667 C37.8552,61.0031111 37.5071556,61.4942222 36.7496444,61.4942222 L35.2758222,61.4942222 L35.2758222,51.0542222 Z M32.0617333,63.4391111 L38.6534667,63.4391111 C39.9226222,63.4391111 40.4345333,62.8248889 40.4345333,61.576 L40.4345333,50.972 C40.4345333,49.7235556 39.9226222,49.1093333 38.6534667,49.1093333 L32.0617333,49.1093333 L32.6965333,50.2555556 L32.6965333,62.2928889 L32.0617333,63.4391111 L32.0617333,63.4391111 Z" id="Fill-22" fill="#1D2E3F"></path>
                    <g id="Group-26" fill="#1D2E3F">
                        <polyline id="Fill-23" points="55.1511111 50.256 55.1511111 62.2928889 54.516 63.4395556 62.2337778 63.4395556 62.2337778 60.3893333 60.0844444 61.4946667 57.7302222 61.4946667 57.7302222 57.2573333 59.8591111 57.2573333 61.0466667 57.7893333 61.0466667 54.7595556 59.8591111 55.292 57.7302222 55.292 57.7302222 51.0542222 60.0844444 51.0542222 62.2337778 52.16 62.2337778 49.1097778 54.516 49.1097778 55.1511111 50.256"></polyline>
                        <path d="M3.32035556,71.9533333 L70.7235556,71.9533333 L70.7235556,3.29937778 L3.32035556,3.29937778 L3.32035556,71.9533333 Z M0,75.2524444 L74.044,75.2524444 L74.044,0 L0,0 L0,75.2524444 Z" id="Fill-25"></path>
                    </g>
                    <g id="Group-26" fill="#1D2E3F">
                        <polyline id="Fill-23" points="55.1511111 50.256 55.1511111 62.2928889 54.516 63.4395556 62.2337778 63.4395556 62.2337778 60.3893333 60.0844444 61.4946667 57.7302222 61.4946667 57.7302222 57.2573333 59.8591111 57.2573333 61.0466667 57.7893333 61.0466667 54.7595556 59.8591111 55.292 57.7302222 55.292 57.7302222 51.0542222 60.0844444 51.0542222 62.2337778 52.16 62.2337778 49.1097778 54.516 49.1097778 55.1511111 50.256"></polyline>
                        <path d="M3.32035556,71.9533333 L70.7235556,71.9533333 L70.7235556,3.29937778 L3.32035556,3.29937778 L3.32035556,71.9533333 Z M0,75.2524444 L74.044,75.2524444 L74.044,0 L0,0 L0,75.2524444 Z" id="Fill-25"></path>
                    </g>
                    <path d="M77.7457778,74.8951111 C76.7253333,74.8951111 75.8991111,74.0386667 75.8991111,72.9475556 C75.8991111,71.876 76.7253333,71.0084444 77.7355556,71.0084444 L77.7457778,71.0084444 C78.7653333,71.0084444 79.5822222,71.876 79.5822222,72.9568889 C79.5822222,74.0386667 78.7653333,74.9053333 77.7457778,74.8951111 Z M77.7457778,70.6515556 L77.7355556,70.6515556 C76.48,70.6515556 75.4604444,71.6711111 75.4604444,72.9475556 C75.4604444,74.2422222 76.48,75.2524444 77.7355556,75.2524444 C79.0013333,75.2524444 80,74.2422222 80,72.9475556 C80,71.6711111 79.0013333,70.6515556 77.7457778,70.6515556 L77.7457778,70.6515556 Z" id="Fill-27" fill="#1D2E3F"></path>
                    <path d="M77.9915556,72.9564444 C77.9262222,73.0111111 77.8315556,73.0382222 77.7057778,73.0382222 L77.3671111,73.0382222 L77.3671111,72.4106667 L77.7057778,72.4106667 C77.8315556,72.4106667 77.9262222,72.4377778 77.9915556,72.4915556 C78.0568889,72.5457778 78.0893333,72.6235556 78.0893333,72.7244444 C78.0893333,72.8244444 78.0568889,72.9013333 77.9915556,72.9564444 Z M78.4146667,73.0706667 C78.4791111,72.9737778 78.5111111,72.8586667 78.5111111,72.7244444 C78.5111111,72.5915556 78.4791111,72.4751111 78.4155556,72.3773333 C78.352,72.2795556 78.2617778,72.204 78.1444444,72.1506667 C78.0266667,72.0977778 77.8884444,72.072 77.7297778,72.072 L76.9502222,72.072 L76.9502222,73.8706667 L77.3671111,73.8706667 L77.3671111,73.3697778 L77.7493333,73.3697778 L78.0964444,73.8706667 L78.5444444,73.8706667 L78.14,73.2928889 C78.2586667,73.2408889 78.3502222,73.1671111 78.4146667,73.0706667 L78.4146667,73.0706667 Z" id="Fill-28" fill="#1D2E3F"></path>
                </g>
            </g>
        </g>
    </g>
</svg>